# xmcd
#
# Track frame offsets:
#	150
#	16424
#	28410
#	46627
#	61178
#	79585
#	95938
#	114560
#	128923
#	142280
#	157287
#	174184
#	187469
#	203088
#	218416
#	234823
#	252585
#	270186
#
# Disc length: 3822 seconds
#
# Revision: 1
# Processed by: cddbd v1.5.2PL0 Copyright (c) Steve Scherf et al.
# Submitted via: audiograbber 1.83.01
#
DISCID=010eec12
DTITLE=Various Artist - Erg Nu Country Traxx 35
DYEAR=2002
DGENRE=Country
TTITLE0=George Strait - Living And Living Well
TTITLE1=Deryl Dodd - Pearl Snaps
TTITLE2=Alan Jackson - Drive (For Daddy Gene)
TTITLE3=Brad Paisley - I'm Gonna Miss Her
TTITLE4=Gabbie Nolen - Almost There
TTITLE5=Clint Black - Money Or Love
TTITLE6=Lonestar - Not A Day Goes By
TTITLE7=Chely Wright - Jezebel
TTITLE8=Andy Griggs - Tonight I Wanna Be Your Man
TTITLE9=Joanna Janet - Since I've Seen You Last
TTITLE10=Jameson Clark - Still Smokin'
TTITLE11=Jamie O'neal - Frantic
TTITLE12=Derailers - Bar Exam
TTITLE13=Shannon Brown - Untangle My Heart
TTITLE14=Gary Allan - The One
TTITLE15=Shannon Lawson - Goodbye On A Bad Day
TTITLE16=Alabama - The Woman He Loves
TTITLE17=David Ball - She Always Talked About Mexico
EXTD=
EXTT0=
EXTT1=
EXTT2=
EXTT3=
EXTT4=
EXTT5=
EXTT6=
EXTT7=
EXTT8=
EXTT9=
EXTT10=
EXTT11=
EXTT12=
EXTT13=
EXTT14=
EXTT15=
EXTT16=
EXTT17=
PLAYORDER=
